<svg id="svg" version="1.1" xmlns="http://www.w3.org/2000/svg" xmlns:xlink="http://www.w3.org/1999/xlink" width="400" height="400" viewBox="0, 0, 400,400"><g id="svgg"><path id="path0" d="M119.780 65.506 C 118.614 67.535,115.623 71.198,113.008 73.800 C 112.123 74.680,110.798 76.660,110.062 78.200 C 109.327 79.740,108.442 81.588,108.096 82.306 C 107.750 83.025,106.662 84.146,105.677 84.799 C 103.432 86.285,103.036 86.868,102.410 89.600 C 101.446 93.807,97.908 99.600,96.303 99.600 C 95.713 99.600,93.628 103.300,93.000 105.460 C 92.289 107.906,90.397 110.275,88.534 111.054 C 86.963 111.710,86.922 111.775,85.996 115.116 C 84.462 120.653,81.798 125.102,79.600 125.800 C 78.532 126.139,77.345 128.790,76.843 131.956 C 76.176 136.161,75.047 138.504,72.650 140.659 C 70.361 142.717,69.842 143.694,68.755 148.000 C 67.681 152.253,65.489 156.530,63.610 158.040 C 62.196 159.177,60.400 162.327,60.400 163.674 C 60.399 165.012,57.825 169.408,55.711 171.683 C 53.197 174.388,51.568 177.684,50.810 181.600 C 50.281 184.329,48.944 187.245,47.141 189.600 C 44.237 193.393,43.312 198.475,42.953 212.600 C 42.676 223.506,42.228 225.300,38.897 228.849 C 38.149 229.646,36.237 232.705,34.648 235.647 C 32.521 239.586,31.395 241.240,30.379 241.920 C 28.034 243.491,27.315 245.230,27.001 250.095 L 26.724 254.391 27.846 254.818 C 29.486 255.441,30.566 255.010,32.045 253.144 C 35.006 249.404,45.080 247.867,48.387 250.650 C 51.221 253.035,53.031 259.979,52.578 266.726 C 52.269 271.321,52.954 272.819,55.633 273.407 C 57.357 273.786,59.913 275.835,61.207 277.876 C 61.850 278.889,63.016 280.174,63.798 280.730 C 69.245 284.606,69.506 297.911,64.196 301.024 C 60.832 302.995,60.417 303.994,59.228 313.000 C 58.242 320.465,58.264 320.916,59.711 323.015 C 62.120 326.510,63.033 326.209,66.065 320.916 C 67.243 318.859,68.543 317.558,71.376 315.600 C 72.172 315.050,73.688 313.429,74.745 311.997 C 76.467 309.666,77.174 309.109,81.523 306.660 C 84.193 305.156,86.878 303.433,87.489 302.831 C 90.142 300.217,93.400 298.949,99.885 298.007 C 103.018 297.552,106.721 296.556,107.325 296.005 C 108.316 295.104,100.403 292.409,91.427 290.591 C 86.952 289.685,83.044 286.587,80.029 281.555 C 70.203 265.163,69.403 261.711,69.696 237.000 C 69.898 219.984,69.910 219.898,72.307 217.167 C 73.723 215.555,76.545 209.466,77.206 206.600 C 77.893 203.619,78.299 203.003,80.633 201.395 C 82.076 200.401,83.067 199.325,83.700 198.063 C 85.256 194.964,85.992 194.074,88.041 192.812 C 89.121 192.148,90.498 190.865,91.102 189.960 C 92.815 187.394,95.188 184.856,96.137 184.575 C 97.823 184.076,100.042 182.247,101.283 180.332 C 102.243 178.850,103.069 178.144,104.771 177.352 C 111.319 174.306,112.784 173.492,114.761 171.800 C 117.558 169.408,119.634 168.396,124.910 166.853 C 129.295 165.570,130.975 164.854,135.600 162.293 C 146.629 156.187,189.039 155.981,196.686 161.996 C 198.486 163.412,201.191 164.406,207.127 165.832 C 213.626 167.393,214.429 167.739,217.150 170.156 C 218.405 171.271,220.166 172.288,222.054 172.990 C 227.798 175.124,230.164 176.406,232.400 178.594 C 233.765 179.929,235.831 181.357,237.842 182.355 C 240.859 183.851,242.205 185.007,244.077 187.712 C 244.450 188.250,245.620 189.097,246.677 189.593 C 249.348 190.846,251.343 192.510,252.649 194.574 C 253.484 195.894,254.351 196.610,256.148 197.464 C 257.462 198.089,259.452 199.236,260.569 200.013 C 261.686 200.791,263.230 201.680,264.000 201.990 C 264.770 202.300,266.030 202.953,266.800 203.442 C 268.341 204.420,275.972 206.133,281.800 206.809 C 288.441 207.579,291.912 208.768,294.527 211.169 C 298.636 214.940,316.502 217.282,318.900 214.363 C 320.322 212.633,319.999 212.419,311.648 209.562 C 307.993 208.312,305.910 206.960,305.037 205.271 C 304.565 204.358,303.648 203.902,299.337 202.437 C 292.343 200.058,288.800 197.906,288.800 196.035 C 288.800 195.646,287.917 195.298,283.200 193.826 C 278.673 192.413,276.083 190.946,274.613 188.963 C 273.167 187.012,271.467 185.808,269.581 185.400 C 267.216 184.888,264.360 183.207,262.645 181.317 C 261.740 180.320,260.010 178.871,258.800 178.098 C 252.981 174.380,249.286 170.058,247.187 164.518 C 246.364 162.344,245.687 161.155,245.183 160.995 C 241.239 159.743,240.183 155.458,240.305 141.200 C 240.525 115.445,239.552 107.925,235.545 104.400 C 234.420 103.410,232.397 101.606,231.050 100.391 C 227.327 97.034,223.766 95.479,216.000 93.817 C 210.001 92.533,208.945 92.172,204.400 89.852 C 200.861 88.046,198.614 87.166,196.711 86.840 C 195.232 86.587,192.532 85.955,190.711 85.435 C 188.890 84.915,186.140 84.283,184.600 84.030 C 179.678 83.221,177.815 82.514,175.746 80.672 C 174.676 79.720,173.440 78.800,173.000 78.629 C 170.785 77.766,162.508 75.866,158.800 75.369 C 153.720 74.688,152.346 74.106,150.990 72.057 C 149.854 70.340,146.243 68.406,144.150 68.393 C 143.517 68.389,141.740 68.068,140.200 67.678 C 137.968 67.114,136.548 67.023,133.200 67.230 C 128.477 67.523,124.887 66.676,122.217 64.640 L 120.869 63.612 119.780 65.506 M322.865 219.411 C 320.860 220.282,321.485 220.900,325.431 221.949 C 329.108 222.927,333.011 222.447,333.486 220.959 C 333.994 219.370,325.733 218.166,322.865 219.411 " stroke="none" fill="#409ece" fill-rule="evenodd"></path><path id="path1" d="M118.332 57.611 C 116.791 58.425,115.662 59.789,114.861 61.803 C 114.347 63.098,112.193 65.600,111.594 65.600 C 110.202 65.600,104.400 74.473,104.400 76.601 C 104.400 76.686,103.391 77.709,102.159 78.875 C 99.696 81.204,98.684 82.885,97.963 85.846 C 97.287 88.620,96.469 89.869,94.308 91.425 C 92.179 92.958,90.122 96.540,88.581 101.400 C 87.865 103.655,87.470 104.307,86.546 104.751 C 84.012 105.968,82.029 108.611,81.406 111.600 C 80.951 113.783,79.299 116.532,77.992 117.280 C 76.328 118.233,73.772 122.463,72.979 125.577 C 71.695 130.612,71.618 130.762,69.438 132.372 C 66.927 134.227,65.503 137.045,64.402 142.336 C 63.421 147.048,63.152 147.615,61.097 149.299 C 58.924 151.079,57.460 154.006,56.365 158.754 C 55.343 163.184,54.957 163.900,52.904 165.179 C 50.105 166.921,47.947 171.322,46.224 178.800 C 46.097 179.353,45.286 180.286,44.411 180.887 C 41.646 182.784,40.392 186.065,39.630 193.400 C 39.402 195.600,38.828 200.550,38.356 204.400 C 37.848 208.545,37.526 213.290,37.568 216.034 L 37.638 220.669 36.041 221.725 C 34.375 222.828,32.658 225.346,32.170 227.400 C 31.617 229.730,29.607 233.154,28.136 234.274 C 26.095 235.827,23.856 239.436,23.053 242.465 C 21.693 247.595,21.541 247.898,19.404 249.743 C 15.394 253.205,15.158 260.202,18.913 264.277 C 20.884 266.415,20.843 266.417,23.123 264.054 C 25.499 261.592,26.835 260.918,30.696 260.233 C 32.403 259.931,34.610 259.385,35.600 259.020 C 36.929 258.531,45.273 256.400,45.860 256.400 C 46.684 256.400,47.744 262.505,47.770 267.400 C 47.811 275.079,48.602 276.517,53.806 278.386 C 54.780 278.736,55.197 279.297,55.976 281.309 C 56.664 283.087,57.550 284.397,59.074 285.887 C 61.084 287.852,61.243 288.154,61.804 291.087 C 62.674 295.632,62.657 295.716,60.639 296.696 C 58.121 297.920,57.045 299.605,55.598 304.591 C 54.697 307.695,53.975 309.378,53.135 310.335 C 49.066 314.969,48.970 329.982,52.971 336.027 L 53.950 337.507 55.885 336.581 C 56.950 336.071,59.018 335.446,60.480 335.191 C 63.522 334.662,65.818 333.035,66.980 330.585 C 68.292 327.820,70.638 324.969,75.194 320.600 C 77.718 318.180,80.687 315.282,81.792 314.160 C 84.104 311.811,86.634 310.244,89.478 309.399 C 92.007 308.648,94.523 306.835,95.155 305.309 C 95.697 304.000,99.659 302.823,106.340 301.987 C 119.787 300.305,121.752 295.200,111.000 289.884 C 108.360 288.579,105.534 286.909,104.720 286.175 C 102.929 284.557,98.613 283.150,92.045 282.040 C 86.032 281.025,85.862 280.854,85.038 275.000 C 82.564 257.423,83.650 247.926,88.701 242.954 C 94.115 237.626,94.070 227.461,88.612 222.988 C 86.319 221.109,86.334 220.955,89.054 218.607 C 90.611 217.262,91.617 215.971,92.307 214.430 C 93.296 212.221,95.768 209.200,96.587 209.200 C 97.681 209.200,100.389 207.350,102.200 205.366 C 104.072 203.315,104.430 203.111,107.800 202.179 C 111.176 201.246,113.171 200.916,124.800 199.373 C 140.810 197.249,160.034 198.860,163.817 202.643 C 165.450 204.276,166.000 207.625,166.000 215.932 C 166.000 224.444,167.645 229.200,170.588 229.200 C 171.370 229.200,174.444 225.267,176.054 222.207 C 176.750 220.883,178.280 218.781,179.453 217.537 C 180.786 216.123,182.097 214.153,182.946 212.290 C 184.248 209.433,186.843 206.000,187.700 206.000 C 187.924 206.000,189.838 205.179,191.954 204.175 C 196.301 202.112,196.708 202.094,204.400 203.616 C 212.539 205.227,221.274 206.049,238.400 206.814 C 250.649 207.361,253.695 207.728,255.266 208.847 C 257.817 210.664,260.878 211.246,266.371 210.960 C 274.936 210.514,280.582 211.503,282.829 213.843 C 285.374 216.492,287.707 217.278,298.105 218.987 C 305.563 220.213,306.135 220.404,307.950 222.274 C 310.444 224.841,314.050 225.966,324.400 227.408 C 330.792 228.298,331.407 228.510,333.643 230.601 C 336.710 233.470,342.355 235.165,349.000 235.212 C 354.314 235.250,355.355 235.595,357.722 238.105 C 360.935 241.513,361.639 241.757,366.075 240.987 C 370.305 240.253,371.881 239.668,372.994 238.419 L 373.789 237.528 372.394 236.251 C 371.397 235.338,369.772 234.585,366.692 233.610 C 362.007 232.126,361.573 231.806,360.024 228.706 C 358.539 225.735,356.715 224.604,351.400 223.357 C 345.332 221.934,344.972 221.763,343.791 219.748 C 342.171 216.984,338.816 215.376,330.147 213.208 C 328.880 212.891,328.380 212.517,328.001 211.602 C 327.010 209.211,324.856 207.817,319.356 206.008 C 314.475 204.403,314.104 204.205,312.400 202.293 C 310.669 200.351,307.423 198.412,305.887 198.404 C 304.189 198.395,298.916 195.957,297.580 194.564 C 295.308 192.193,292.979 190.813,289.907 190.019 C 285.694 188.931,283.824 187.966,282.056 185.969 C 279.997 183.644,276.890 181.832,273.242 180.831 C 270.405 180.052,268.800 179.129,268.800 178.276 C 268.800 177.233,266.497 175.018,264.443 174.085 C 261.432 172.718,259.665 171.329,259.038 169.836 C 258.412 168.346,256.131 166.048,254.997 165.764 C 253.847 165.475,252.211 162.624,251.631 159.896 C 251.362 158.629,250.555 156.721,249.838 155.656 C 249.121 154.591,248.220 152.928,247.834 151.960 C 247.449 150.992,246.769 149.607,246.323 148.882 C 245.268 147.166,245.295 143.443,246.389 139.953 C 247.396 136.741,247.502 129.338,246.589 126.000 C 246.257 124.790,245.814 122.540,245.602 121.000 C 245.391 119.460,244.775 114.960,244.234 111.000 C 242.894 101.202,242.046 99.073,238.747 97.218 C 237.877 96.729,236.730 95.640,236.198 94.797 C 234.099 91.472,230.786 90.106,220.200 88.201 C 216.252 87.490,213.108 86.218,211.408 84.642 C 209.524 82.897,206.282 81.950,200.800 81.544 C 194.619 81.087,191.607 80.131,189.484 77.953 C 187.251 75.662,181.588 73.954,173.000 72.980 C 169.646 72.599,167.118 71.429,165.618 69.562 C 163.717 67.197,162.992 66.883,157.995 66.256 C 155.468 65.938,152.909 65.487,152.309 65.253 C 151.709 65.018,149.999 64.626,148.509 64.381 C 144.654 63.748,142.669 62.862,141.662 61.327 C 141.188 60.603,140.092 59.543,139.225 58.969 L 137.651 57.927 133.452 58.546 C 129.648 59.107,129.136 59.107,127.997 58.539 C 124.477 56.783,120.604 56.411,118.332 57.611 M123.000 60.189 C 123.880 60.587,125.590 61.597,126.800 62.433 C 128.949 63.917,129.057 63.945,131.467 63.653 C 135.826 63.125,137.987 63.361,141.200 64.712 C 142.850 65.407,145.593 66.366,147.296 66.844 C 148.998 67.323,151.308 68.318,152.430 69.056 C 153.933 70.046,155.491 70.607,158.364 71.193 C 160.507 71.629,163.437 72.520,164.875 73.172 C 166.313 73.825,169.294 74.815,171.498 75.374 C 173.703 75.933,177.012 77.038,178.853 77.830 C 186.169 80.979,194.470 83.617,199.000 84.234 C 204.225 84.946,205.059 85.233,208.200 87.407 C 211.132 89.435,212.070 89.800,216.400 90.594 C 221.437 91.518,228.459 93.230,229.600 93.812 C 231.863 94.967,239.902 103.350,240.335 105.005 C 241.656 110.061,242.002 111.930,242.558 117.000 C 243.485 125.452,243.741 134.303,243.236 140.465 C 242.863 145.020,242.891 146.611,243.402 150.017 C 244.096 154.631,243.967 154.311,246.218 157.000 C 247.140 158.100,248.715 160.710,249.718 162.800 C 251.827 167.190,257.124 173.099,261.387 175.815 C 262.700 176.651,264.670 178.232,265.766 179.328 C 267.161 180.723,268.874 181.838,271.485 183.050 C 273.698 184.077,275.982 185.495,277.106 186.540 C 279.125 188.417,281.797 189.908,285.921 191.460 C 289.721 192.890,291.369 193.819,293.556 195.761 C 295.429 197.425,296.688 198.024,304.269 200.860 C 305.503 201.322,307.488 202.593,308.909 203.832 C 311.031 205.684,312.145 206.273,316.596 207.897 C 321.465 209.674,321.961 209.955,324.303 212.266 C 325.969 213.910,327.440 214.960,328.703 215.405 C 337.143 218.382,340.000 219.941,340.000 221.569 C 340.000 224.155,341.634 225.600,344.560 225.600 C 346.420 225.601,354.417 227.845,355.142 228.571 C 357.093 230.522,348.167 232.836,343.913 231.482 C 341.067 230.576,339.260 229.411,338.793 228.180 C 338.253 226.760,336.430 226.120,332.000 225.796 C 325.345 225.309,319.508 223.876,314.972 221.615 C 310.157 219.214,307.359 218.214,303.260 217.430 C 295.390 215.925,292.414 214.994,289.200 213.035 C 284.838 210.376,279.183 208.963,267.400 207.591 C 262.584 207.030,261.633 206.660,258.179 204.013 C 256.708 202.886,254.457 201.435,253.178 200.789 C 251.073 199.726,248.800 197.521,248.800 196.541 C 248.800 195.800,246.184 193.690,244.666 193.205 C 242.814 192.614,240.588 190.734,239.733 189.041 C 238.813 187.220,237.574 186.001,236.630 185.991 C 234.344 185.964,229.069 183.046,226.425 180.345 C 224.902 178.790,221.327 176.800,220.055 176.800 C 217.327 176.800,211.217 173.745,209.746 171.644 C 208.954 170.513,204.820 169.313,200.000 168.814 C 191.899 167.976,186.105 166.194,183.092 163.614 L 181.441 162.200 173.420 162.060 C 169.009 161.983,163.049 162.044,160.176 162.197 L 154.952 162.474 154.310 165.875 C 153.890 168.103,153.381 169.582,152.834 170.164 C 152.044 171.004,152.000 171.490,152.000 179.291 L 152.000 187.530 150.500 187.762 C 149.675 187.890,147.020 188.178,144.600 188.404 C 125.913 190.143,121.194 191.206,118.003 194.397 C 116.350 196.050,116.283 196.074,109.770 197.377 C 101.989 198.933,100.055 199.802,97.796 202.759 C 96.906 203.924,95.628 205.109,94.957 205.391 C 92.889 206.260,90.773 208.442,89.551 210.966 C 88.813 212.489,87.643 214.026,86.377 215.132 C 81.908 219.042,81.971 223.793,86.545 227.910 L 88.000 229.219 88.000 233.587 L 88.000 237.955 86.791 238.669 C 82.374 241.278,77.343 258.597,79.143 265.000 C 79.575 266.540,80.509 270.410,81.218 273.600 C 83.198 282.510,84.444 283.802,92.200 284.982 C 94.665 285.357,96.840 286.005,98.389 286.827 C 99.165 287.239,101.060 288.053,102.600 288.635 C 104.982 289.537,107.108 290.672,111.372 293.321 C 111.796 293.584,112.653 294.236,113.276 294.770 L 114.408 295.740 113.504 296.718 C 113.007 297.256,111.880 298.007,111.000 298.386 C 109.515 299.026,107.916 299.461,99.400 301.544 C 94.998 302.621,94.323 302.926,92.815 304.525 C 92.091 305.292,90.487 306.422,89.250 307.036 C 88.012 307.650,86.248 308.658,85.328 309.276 C 84.408 309.894,83.454 310.400,83.207 310.400 C 82.960 310.400,80.832 312.350,78.479 314.733 C 76.125 317.116,73.457 319.634,72.548 320.328 C 71.640 321.023,70.152 322.808,69.241 324.295 C 64.152 332.608,63.830 332.872,58.523 333.065 L 54.171 333.223 53.293 331.417 C 52.065 328.890,51.695 321.557,52.624 318.160 C 52.979 316.862,53.406 315.260,53.573 314.600 C 53.740 313.940,54.336 312.050,54.898 310.400 C 55.459 308.750,56.221 306.320,56.591 305.000 C 57.580 301.467,58.891 299.482,61.222 297.986 C 63.770 296.351,63.952 295.842,63.553 291.462 C 63.135 286.880,63.056 286.675,61.236 285.471 C 60.390 284.911,59.180 283.624,58.549 282.612 C 57.917 281.599,57.034 280.192,56.587 279.485 C 56.137 278.775,54.877 277.745,53.771 277.184 C 49.411 274.973,48.644 273.391,48.738 266.800 C 48.854 258.614,46.359 252.512,43.712 254.510 C 43.443 254.713,42.003 255.271,40.512 255.750 C 39.020 256.229,37.333 256.934,36.761 257.316 C 35.790 257.966,31.620 259.270,27.000 260.367 C 25.534 260.715,24.516 261.317,23.186 262.621 C 19.816 265.926,18.473 264.383,17.388 255.964 C 17.116 253.852,18.004 251.939,19.910 250.530 C 21.233 249.552,22.422 247.265,23.578 243.478 C 24.488 240.496,25.271 239.214,28.023 236.200 C 30.090 233.936,32.275 230.354,33.386 227.407 C 33.859 226.152,34.888 224.683,36.168 223.436 L 38.199 221.458 38.459 214.629 C 38.683 208.758,39.029 204.865,39.814 199.400 C 40.992 191.205,41.341 189.213,41.875 187.639 C 42.535 185.696,44.455 182.644,45.351 182.115 C 46.126 181.656,46.671 180.471,48.018 176.311 C 49.719 171.059,50.684 169.305,53.253 166.800 C 55.831 164.287,56.113 163.815,57.257 160.105 C 58.415 156.354,60.024 153.305,62.184 150.775 C 63.759 148.930,64.254 147.879,65.651 143.411 C 67.434 137.706,68.172 136.253,70.405 134.042 C 72.149 132.316,72.772 131.172,73.992 127.459 C 74.814 124.958,76.938 121.741,79.249 119.497 C 79.890 118.874,80.694 117.315,83.683 110.894 C 84.128 109.939,85.501 108.298,86.802 107.166 C 88.080 106.054,89.355 104.572,89.634 103.872 C 91.604 98.936,93.104 96.497,96.526 92.664 C 97.280 91.819,98.297 90.199,98.785 89.064 C 100.512 85.049,101.366 83.508,102.443 82.460 C 103.042 81.877,104.082 80.865,104.754 80.212 C 105.426 79.558,106.085 78.525,106.218 77.916 C 106.352 77.307,106.643 76.697,106.864 76.561 C 107.085 76.424,107.612 75.567,108.034 74.656 C 109.399 71.712,110.330 70.453,113.349 67.464 C 114.979 65.849,116.591 63.990,116.931 63.334 C 117.611 62.018,120.667 59.087,121.116 59.319 C 121.272 59.400,122.120 59.791,123.000 60.189 " stroke="none" fill="#aedcea" fill-rule="evenodd"></path><path id="path2" d="M119.338 61.298 C 118.666 62.014,117.512 63.498,116.773 64.596 C 116.034 65.693,114.244 67.870,112.796 69.432 C 110.967 71.404,109.457 73.624,107.859 76.687 C 106.286 79.703,105.077 81.486,104.046 82.315 C 102.573 83.499,101.639 85.085,99.286 90.400 C 98.653 91.830,97.188 94.080,96.029 95.400 C 94.756 96.851,93.115 99.461,91.878 102.000 C 90.285 105.271,89.290 106.734,87.383 108.616 C 85.323 110.649,84.729 111.570,83.644 114.416 C 82.083 118.511,80.773 120.814,78.764 122.993 C 77.049 124.853,75.500 127.744,74.794 130.400 C 74.141 132.858,73.388 134.266,71.529 136.503 C 69.726 138.673,68.116 142.051,66.817 146.390 C 65.751 149.951,64.541 152.425,62.800 154.600 C 61.270 156.512,59.769 159.383,58.745 162.359 C 57.854 164.949,56.109 167.767,54.379 169.409 C 52.815 170.894,51.292 173.887,49.601 178.800 C 48.244 182.742,47.651 183.978,45.439 187.477 C 42.886 191.514,41.418 200.327,40.930 214.530 L 40.671 222.061 39.308 224.330 C 38.557 225.579,37.606 226.961,37.194 227.402 C 36.782 227.843,35.876 229.283,35.182 230.602 C 32.144 236.377,30.993 238.220,29.169 240.235 C 26.861 242.783,25.798 244.755,25.412 247.200 C 25.050 249.500,24.173 252.164,23.381 253.373 C 22.793 254.271,22.820 254.360,23.923 255.145 C 27.030 257.358,30.268 257.180,33.864 254.600 C 37.033 252.327,37.638 252.097,41.731 251.608 C 48.453 250.806,50.800 254.655,50.800 266.483 L 50.800 271.572 52.059 273.007 C 52.752 273.795,53.877 274.727,54.559 275.077 C 56.365 276.002,58.037 277.489,59.376 279.358 C 60.023 280.261,61.395 281.910,62.426 283.023 C 65.254 286.076,65.522 286.818,65.662 291.982 L 65.785 296.522 63.162 298.961 C 59.514 302.354,59.051 303.178,57.863 308.400 C 55.084 320.607,55.302 324.300,58.992 327.539 C 62.060 330.233,62.660 329.897,67.628 322.700 C 68.957 320.775,70.172 319.200,70.329 319.200 C 70.945 319.200,75.252 315.288,76.793 313.328 C 78.376 311.317,80.323 310.010,86.800 306.612 C 88.010 305.977,89.810 304.790,90.800 303.974 C 93.527 301.726,94.848 301.209,100.485 300.185 C 106.170 299.152,109.855 298.052,111.986 296.752 L 113.372 295.907 112.430 295.144 C 109.295 292.605,99.854 288.819,89.122 285.798 C 84.982 284.632,82.962 281.516,81.212 273.600 C 80.507 270.410,79.575 266.540,79.143 265.000 C 77.343 258.597,82.374 241.278,86.791 238.669 L 88.000 237.955 88.000 233.587 L 88.000 229.219 86.545 227.910 C 81.971 223.793,81.908 219.042,86.377 215.132 C 87.643 214.026,88.813 212.489,89.551 210.966 C 90.773 208.442,92.889 206.260,94.957 205.391 C 95.628 205.109,96.906 203.924,97.796 202.759 C 100.055 199.802,101.989 198.933,109.770 197.377 C 116.283 196.074,116.350 196.050,118.003 194.397 C 121.194 191.206,125.913 190.143,144.600 188.404 C 147.020 188.178,149.675 187.890,150.500 187.762 L 152.000 187.530 152.000 179.291 C 152.000 171.490,152.044 171.004,152.834 170.164 C 153.381 169.582,153.890 168.103,154.310 165.875 L 154.952 162.474 160.176 162.197 C 163.049 162.044,169.009 161.983,173.420 162.060 L 181.441 162.200 183.092 163.614 C 186.105 166.194,191.899 167.976,200.000 168.814 C 204.820 169.313,208.954 170.513,209.746 171.644 C 211.217 173.745,217.327 176.800,220.055 176.800 C 221.327 176.800,224.902 178.790,226.425 180.345 C 229.069 183.046,234.344 185.964,236.630 185.991 C 237.574 186.001,238.813 187.220,239.733 189.041 C 240.588 190.734,242.814 192.614,244.666 193.205 C 246.184 193.690,248.800 195.800,248.800 196.541 C 248.800 197.521,251.073 199.726,253.178 200.789 C 254.457 201.435,256.708 202.886,258.179 204.013 C 261.633 206.660,262.584 207.030,267.400 207.591 C 279.183 208.963,284.838 210.376,289.200 213.035 C 292.414 214.994,295.390 215.925,303.260 217.430 C 307.359 218.214,310.157 219.214,314.972 221.615 C 319.508 223.876,325.345 225.309,332.000 225.796 C 336.430 226.120,338.253 226.760,338.793 228.180 C 339.260 229.411,341.067 230.576,343.913 231.482 C 348.167 232.836,357.093 230.522,355.142 228.571 C 354.417 227.845,346.420 225.601,344.560 225.600 C 341.634 225.600,340.000 224.155,340.000 221.569 C 340.000 219.941,337.143 218.382,328.703 215.405 C 327.440 214.960,325.969 213.910,324.303 212.266 C 321.961 209.955,321.465 209.674,316.596 207.897 C 312.145 206.273,311.031 205.684,308.909 203.832 C 307.488 202.593,305.503 201.322,304.269 200.860 C 296.688 198.024,295.429 197.425,293.556 195.761 C 291.369 193.819,289.721 192.890,285.921 191.460 C 281.797 189.908,279.125 188.417,277.106 186.540 C 275.982 185.495,273.698 184.077,271.485 183.050 C 268.874 181.838,267.161 180.723,265.766 179.328 C 264.670 178.232,262.700 176.651,261.387 175.815 C 257.124 173.099,251.827 167.190,249.718 162.800 C 248.715 160.710,247.140 158.100,246.218 157.000 C 243.967 154.311,244.096 154.631,243.402 150.017 C 242.891 146.611,242.863 145.020,243.236 140.465 C 243.741 134.303,243.485 125.452,242.558 117.000 C 242.002 111.930,241.656 110.061,240.335 105.005 C 239.902 103.350,231.863 94.967,229.600 93.812 C 228.459 93.230,221.437 91.518,216.400 90.594 C 212.070 89.800,211.132 89.435,208.200 87.407 C 205.059 85.233,204.225 84.946,199.000 84.234 C 194.470 83.617,186.169 80.979,178.853 77.830 C 177.012 77.038,173.703 75.933,171.498 75.374 C 169.294 74.815,166.313 73.825,164.875 73.172 C 163.437 72.520,160.497 71.627,158.342 71.188 C 155.567 70.623,153.906 70.040,152.646 69.189 C 150.730 67.896,148.843 67.144,145.051 66.161 C 143.728 65.819,141.466 64.998,140.023 64.338 L 137.400 63.137 133.167 63.631 C 128.532 64.172,129.192 64.318,124.400 61.691 C 121.017 59.837,120.731 59.815,119.338 61.298 M126.282 66.579 C 128.696 67.389,129.469 67.462,133.200 67.230 C 136.548 67.023,137.968 67.114,140.200 67.678 C 141.740 68.068,143.517 68.389,144.150 68.393 C 146.243 68.406,149.854 70.340,150.990 72.057 C 152.346 74.106,153.720 74.688,158.800 75.369 C 162.508 75.866,170.785 77.766,173.000 78.629 C 173.440 78.800,174.676 79.720,175.746 80.672 C 177.815 82.514,179.678 83.221,184.600 84.030 C 186.140 84.283,188.890 84.915,190.711 85.435 C 192.532 85.955,195.232 86.587,196.711 86.840 C 198.614 87.166,200.861 88.046,204.400 89.852 C 208.945 92.172,210.001 92.533,216.000 93.817 C 223.766 95.479,227.327 97.034,231.050 100.391 C 232.397 101.606,234.420 103.410,235.545 104.400 C 239.552 107.925,240.525 115.445,240.305 141.200 C 240.183 155.458,241.239 159.743,245.183 160.995 C 245.687 161.155,246.364 162.344,247.187 164.518 C 249.286 170.058,252.981 174.380,258.800 178.098 C 260.010 178.871,261.740 180.320,262.645 181.317 C 264.360 183.207,267.216 184.888,269.581 185.400 C 271.467 185.808,273.167 187.012,274.613 188.963 C 276.083 190.946,278.673 192.413,283.200 193.826 C 287.917 195.298,288.800 195.646,288.800 196.035 C 288.800 197.906,292.343 200.058,299.337 202.437 C 303.648 203.902,304.565 204.358,305.037 205.271 C 305.910 206.960,307.993 208.312,311.648 209.562 C 319.999 212.419,320.322 212.633,318.900 214.363 C 316.502 217.282,298.636 214.940,294.527 211.169 C 291.912 208.768,288.441 207.579,281.800 206.809 C 275.972 206.133,268.341 204.420,266.800 203.442 C 266.030 202.953,264.770 202.300,264.000 201.990 C 263.230 201.680,261.686 200.791,260.569 200.013 C 259.452 199.236,257.462 198.089,256.148 197.464 C 254.351 196.610,253.484 195.894,252.649 194.574 C 251.343 192.510,249.348 190.846,246.677 189.593 C 245.620 189.097,244.450 188.250,244.077 187.712 C 242.205 185.007,240.859 183.851,237.842 182.355 C 235.831 181.357,233.765 179.929,232.400 178.594 C 230.164 176.406,227.798 175.124,222.054 172.990 C 220.166 172.288,218.405 171.271,217.150 170.156 C 214.429 167.739,213.626 167.393,207.127 165.832 C 201.191 164.406,198.486 163.412,196.686 161.996 C 189.039 155.981,146.629 156.187,135.600 162.293 C 130.975 164.854,129.295 165.570,124.910 166.853 C 119.634 168.396,117.558 169.408,114.761 171.800 C 112.784 173.492,111.319 174.306,104.771 177.352 C 103.069 178.144,102.243 178.850,101.283 180.332 C 100.042 182.247,97.823 184.076,96.137 184.575 C 95.188 184.856,92.815 187.394,91.102 189.960 C 90.498 190.865,89.121 192.148,88.041 192.812 C 85.992 194.074,85.256 194.964,83.700 198.063 C 83.067 199.325,82.076 200.401,80.633 201.395 C 78.299 203.003,77.893 203.619,77.206 206.600 C 76.545 209.466,73.723 215.555,72.307 217.167 C 69.910 219.898,69.898 219.984,69.696 237.000 C 69.403 261.711,70.203 265.163,80.029 281.555 C 83.044 286.587,86.952 289.685,91.427 290.591 C 100.403 292.409,108.316 295.104,107.325 296.005 C 106.721 296.556,103.018 297.552,99.885 298.007 C 93.400 298.949,90.142 300.217,87.489 302.831 C 86.878 303.433,84.193 305.156,81.523 306.660 C 77.174 309.109,76.467 309.666,74.745 311.997 C 73.688 313.429,72.172 315.050,71.376 315.600 C 68.543 317.558,67.243 318.859,66.065 320.916 C 63.033 326.209,62.120 326.510,59.711 323.015 C 58.264 320.916,58.242 320.465,59.228 313.000 C 60.417 303.994,60.832 302.995,64.196 301.024 C 69.506 297.911,69.245 284.606,63.798 280.730 C 63.016 280.174,61.850 278.889,61.207 277.876 C 59.913 275.835,57.357 273.786,55.633 273.407 C 52.954 272.819,52.269 271.321,52.578 266.726 C 53.031 259.979,51.221 253.035,48.387 250.650 C 45.080 247.867,35.006 249.404,32.045 253.144 C 30.566 255.010,29.486 255.441,27.846 254.818 L 26.724 254.391 27.001 250.095 C 27.315 245.230,28.034 243.491,30.379 241.920 C 31.395 241.240,32.521 239.586,34.648 235.647 C 36.237 232.705,38.149 229.646,38.897 228.849 C 42.228 225.300,42.676 223.506,42.953 212.600 C 43.312 198.475,44.237 193.393,47.141 189.600 C 48.944 187.245,50.281 184.329,50.810 181.600 C 51.568 177.684,53.197 174.388,55.711 171.683 C 57.825 169.408,60.399 165.012,60.400 163.674 C 60.400 162.327,62.196 159.177,63.610 158.040 C 65.489 156.530,67.681 152.253,68.755 148.000 C 69.842 143.694,70.361 142.717,72.650 140.659 C 75.047 138.504,76.176 136.161,76.843 131.956 C 77.345 128.790,78.532 126.139,79.600 125.800 C 81.798 125.102,84.462 120.653,85.996 115.116 C 86.922 111.775,86.963 111.710,88.534 111.054 C 90.397 110.275,92.289 107.906,93.000 105.460 C 93.628 103.300,95.713 99.600,96.303 99.600 C 97.908 99.600,101.446 93.807,102.410 89.600 C 103.036 86.868,103.432 86.285,105.677 84.799 C 106.662 84.146,107.750 83.025,108.096 82.306 C 108.442 81.588,109.327 79.740,110.062 78.200 C 110.798 76.660,112.123 74.680,113.008 73.800 C 115.623 71.198,118.614 67.535,119.780 65.506 L 120.869 63.612 122.217 64.640 C 122.958 65.205,124.787 66.078,126.282 66.579 M331.560 219.659 C 334.073 220.703,333.999 221.175,331.173 222.149 C 328.836 222.955,322.118 221.782,321.696 220.495 C 321.150 218.832,328.144 218.239,331.560 219.659 " stroke="none" fill="#8cd4e9" fill-rule="evenodd"></path><path id="path3" d="M119.190 60.656 C 118.287 61.472,117.270 62.677,116.931 63.334 C 116.591 63.990,114.979 65.849,113.349 67.464 C 110.330 70.453,109.399 71.712,108.034 74.656 C 107.612 75.567,107.085 76.424,106.864 76.561 C 106.643 76.697,106.352 77.307,106.218 77.916 C 106.085 78.525,105.426 79.558,104.754 80.212 C 104.082 80.865,103.042 81.877,102.443 82.460 C 101.366 83.508,100.512 85.049,98.785 89.064 C 98.297 90.199,97.280 91.819,96.526 92.664 C 93.104 96.497,91.604 98.936,89.634 103.872 C 89.355 104.572,88.080 106.054,86.802 107.166 C 85.501 108.298,84.128 109.939,83.683 110.894 C 80.694 117.315,79.890 118.874,79.249 119.497 C 76.938 121.741,74.814 124.958,73.992 127.459 C 72.772 131.172,72.149 132.316,70.405 134.042 C 68.172 136.253,67.434 137.706,65.651 143.411 C 64.254 147.879,63.759 148.930,62.184 150.775 C 60.024 153.305,58.415 156.354,57.257 160.105 C 56.113 163.815,55.831 164.287,53.253 166.800 C 50.684 169.305,49.719 171.059,48.018 176.311 C 46.671 180.471,46.126 181.656,45.351 182.115 C 44.455 182.644,42.535 185.696,41.875 187.639 C 41.341 189.213,40.992 191.205,39.814 199.400 C 39.029 204.865,38.683 208.758,38.459 214.629 L 38.199 221.458 36.168 223.436 C 34.888 224.683,33.859 226.152,33.386 227.407 C 32.275 230.354,30.090 233.936,28.023 236.200 C 25.271 239.214,24.488 240.496,23.578 243.478 C 22.422 247.265,21.233 249.552,19.910 250.530 C 18.004 251.939,17.116 253.852,17.388 255.964 C 18.473 264.383,19.816 265.926,23.186 262.621 C 24.516 261.317,25.534 260.715,27.000 260.367 C 31.620 259.270,35.790 257.966,36.761 257.316 C 37.333 256.934,39.020 256.229,40.512 255.750 C 42.003 255.271,43.443 254.713,43.712 254.510 C 46.359 252.512,48.854 258.614,48.738 266.800 C 48.644 273.391,49.411 274.973,53.771 277.184 C 54.877 277.745,56.137 278.775,56.587 279.485 C 57.034 280.192,57.917 281.599,58.549 282.612 C 59.180 283.624,60.390 284.911,61.236 285.471 C 63.056 286.675,63.135 286.880,63.553 291.462 C 63.952 295.842,63.770 296.351,61.222 297.986 C 58.891 299.482,57.580 301.467,56.591 305.000 C 56.221 306.320,55.459 308.750,54.898 310.400 C 54.336 312.050,53.740 313.940,53.573 314.600 C 53.406 315.260,52.979 316.862,52.624 318.160 C 51.695 321.557,52.065 328.890,53.293 331.417 L 54.171 333.223 58.523 333.065 C 63.830 332.872,64.152 332.608,69.241 324.295 C 70.152 322.808,71.640 321.023,72.548 320.328 C 73.457 319.634,76.125 317.116,78.479 314.733 C 80.832 312.350,82.960 310.400,83.207 310.400 C 83.454 310.400,84.408 309.894,85.328 309.276 C 86.248 308.658,88.012 307.650,89.250 307.036 C 90.487 306.422,92.091 305.292,92.815 304.525 C 94.323 302.926,94.998 302.621,99.400 301.544 C 107.916 299.461,109.515 299.026,111.000 298.386 C 111.880 298.007,113.007 297.256,113.504 296.718 L 114.408 295.740 113.276 294.770 C 112.653 294.236,111.796 293.584,111.372 293.321 C 107.108 290.672,104.982 289.537,102.600 288.635 C 101.060 288.053,99.165 287.239,98.389 286.827 C 96.840 286.005,94.665 285.357,92.200 284.982 C 88.867 284.475,87.044 283.944,85.941 283.158 C 84.482 282.119,84.462 282.727,85.910 284.114 C 86.646 284.819,88.365 285.578,91.010 286.366 C 102.350 289.743,109.256 292.573,112.430 295.144 L 113.372 295.907 111.986 296.752 C 109.855 298.052,106.170 299.152,100.485 300.185 C 94.848 301.209,93.527 301.726,90.800 303.974 C 89.810 304.790,88.010 305.977,86.800 306.612 C 80.323 310.010,78.376 311.317,76.793 313.328 C 75.252 315.288,70.945 319.200,70.329 319.200 C 70.172 319.200,68.957 320.775,67.628 322.700 C 62.660 329.897,62.060 330.233,58.992 327.539 C 55.302 324.300,55.084 320.607,57.863 308.400 C 59.051 303.178,59.514 302.354,63.162 298.961 L 65.785 296.522 65.662 291.982 C 65.522 286.818,65.254 286.076,62.426 283.023 C 61.395 281.910,60.023 280.261,59.376 279.358 C 58.037 277.489,56.365 276.002,54.559 275.077 C 53.877 274.727,52.752 273.795,52.059 273.007 L 50.800 271.572 50.800 266.483 C 50.800 254.655,48.453 250.806,41.731 251.608 C 37.638 252.097,37.033 252.327,33.864 254.600 C 30.268 257.180,27.030 257.358,23.923 255.145 C 22.820 254.360,22.793 254.271,23.381 253.373 C 24.173 252.164,25.050 249.500,25.412 247.200 C 25.798 244.755,26.861 242.783,29.169 240.235 C 30.993 238.220,32.144 236.377,35.182 230.602 C 35.876 229.283,36.782 227.843,37.194 227.402 C 37.606 226.961,38.557 225.579,39.308 224.330 L 40.671 222.061 40.930 214.530 C 41.418 200.327,42.886 191.514,45.439 187.477 C 47.651 183.978,48.244 182.742,49.601 178.800 C 51.292 173.887,52.815 170.894,54.379 169.409 C 56.109 167.767,57.854 164.949,58.745 162.359 C 59.769 159.383,61.270 156.512,62.800 154.600 C 64.541 152.425,65.751 149.951,66.817 146.390 C 68.116 142.051,69.726 138.673,71.529 136.503 C 73.388 134.266,74.141 132.858,74.794 130.400 C 75.500 127.744,77.049 124.853,78.764 122.993 C 80.773 120.814,82.083 118.511,83.644 114.416 C 84.729 111.570,85.323 110.649,87.383 108.616 C 89.290 106.734,90.285 105.271,91.878 102.000 C 93.115 99.461,94.756 96.851,96.029 95.400 C 97.188 94.080,98.653 91.830,99.286 90.400 C 101.639 85.085,102.573 83.499,104.046 82.315 C 105.077 81.486,106.286 79.703,107.859 76.687 C 109.463 73.613,110.966 71.405,112.815 69.412 C 114.274 67.838,116.198 65.481,117.090 64.175 C 117.981 62.869,119.168 61.376,119.727 60.857 L 120.742 59.915 122.991 60.945 C 124.228 61.511,125.782 62.360,126.443 62.831 C 127.105 63.302,127.738 63.595,127.851 63.482 C 128.122 63.211,125.023 61.109,123.000 60.191 C 122.120 59.792,121.272 59.400,121.116 59.319 C 120.960 59.239,120.093 59.840,119.190 60.656 " stroke="none" fill="#b4cce4" fill-rule="evenodd"></path><path id="path4" d="M0.000 200.000 L 0.000 400.000 200.000 400.000 L 400.000 400.000 400.000 200.000 L 400.000 0.000 200.000 0.000 L 0.000 0.000 0.000 200.000 M124.671 57.361 C 125.809 57.664,127.307 58.194,127.997 58.539 C 129.136 59.107,129.648 59.107,133.452 58.546 L 137.651 57.927 139.225 58.969 C 140.092 59.543,141.188 60.603,141.662 61.327 C 142.669 62.862,144.654 63.748,148.509 64.381 C 149.999 64.626,151.709 65.018,152.309 65.253 C 152.909 65.487,155.468 65.938,157.995 66.256 C 162.992 66.883,163.717 67.197,165.618 69.562 C 167.118 71.429,169.646 72.599,173.000 72.980 C 181.588 73.954,187.251 75.662,189.484 77.953 C 191.607 80.131,194.619 81.087,200.800 81.544 C 206.282 81.950,209.524 82.897,211.408 84.642 C 213.108 86.218,216.252 87.490,220.200 88.201 C 230.786 90.106,234.099 91.472,236.198 94.797 C 236.730 95.640,237.877 96.729,238.747 97.218 C 242.046 99.073,242.894 101.202,244.234 111.000 C 244.775 114.960,245.391 119.460,245.602 121.000 C 245.814 122.540,246.257 124.790,246.589 126.000 C 247.502 129.338,247.396 136.741,246.389 139.953 C 245.295 143.443,245.268 147.166,246.323 148.882 C 246.769 149.607,247.449 150.992,247.834 151.960 C 248.220 152.928,249.121 154.591,249.838 155.656 C 250.555 156.721,251.362 158.629,251.631 159.896 C 252.211 162.624,253.847 165.475,254.997 165.764 C 256.131 166.048,258.412 168.346,259.038 169.836 C 259.665 171.329,261.432 172.718,264.443 174.085 C 266.497 175.018,268.800 177.233,268.800 178.276 C 268.800 179.129,270.405 180.052,273.242 180.831 C 276.890 181.832,279.997 183.644,282.056 185.969 C 283.824 187.966,285.694 188.931,289.907 190.019 C 292.979 190.813,295.308 192.193,297.580 194.564 C 298.916 195.957,304.189 198.395,305.887 198.404 C 307.423 198.412,310.669 200.351,312.400 202.293 C 314.104 204.205,314.475 204.403,319.356 206.008 C 324.856 207.817,327.010 209.211,328.001 211.602 C 328.380 212.517,328.880 212.891,330.147 213.208 C 338.816 215.376,342.171 216.984,343.791 219.748 C 344.972 221.763,345.332 221.934,351.400 223.357 C 356.715 224.604,358.539 225.735,360.024 228.706 C 361.573 231.806,362.007 232.126,366.692 233.610 C 369.772 234.585,371.397 235.338,372.394 236.251 L 373.789 237.528 372.994 238.419 C 371.881 239.668,370.305 240.253,366.075 240.987 C 361.639 241.757,360.935 241.513,357.722 238.105 C 355.355 235.595,354.314 235.250,349.000 235.212 C 342.355 235.165,336.710 233.470,333.643 230.601 C 331.407 228.510,330.792 228.298,324.400 227.408 C 314.050 225.966,310.444 224.841,307.950 222.274 C 306.135 220.404,305.563 220.213,298.105 218.987 C 287.707 217.278,285.374 216.492,282.829 213.843 C 280.582 211.503,274.936 210.514,266.371 210.960 C 260.878 211.246,257.817 210.664,255.266 208.847 C 253.695 207.728,250.649 207.361,238.400 206.814 C 221.274 206.049,212.539 205.227,204.400 203.616 C 196.708 202.094,196.301 202.112,191.954 204.175 C 189.838 205.179,187.924 206.000,187.700 206.000 C 186.843 206.000,184.248 209.433,182.946 212.290 C 182.097 214.153,180.786 216.123,179.453 217.537 C 178.280 218.781,176.750 220.883,176.054 222.207 C 174.444 225.267,171.370 229.200,170.588 229.200 C 167.645 229.200,166.000 224.444,166.000 215.932 C 166.000 207.625,165.450 204.276,163.817 202.643 C 160.034 198.860,140.810 197.249,124.800 199.373 C 113.171 200.916,111.176 201.246,107.800 202.179 C 104.430 203.111,104.072 203.315,102.200 205.366 C 100.389 207.350,97.681 209.200,96.587 209.200 C 95.768 209.200,93.296 212.221,92.307 214.430 C 91.617 215.971,90.611 217.262,89.054 218.607 C 86.334 220.955,86.319 221.109,88.612 222.988 C 91.623 225.456,92.400 227.509,92.400 233.000 C 92.400 238.686,92.032 239.676,88.701 242.954 C 83.650 247.926,82.564 257.423,85.038 275.000 C 85.862 280.854,86.032 281.025,92.045 282.040 C 98.613 283.150,102.929 284.557,104.720 286.175 C 105.534 286.909,108.360 288.579,111.000 289.884 C 121.752 295.200,119.787 300.305,106.340 301.987 C 99.659 302.823,95.697 304.000,95.155 305.309 C 94.523 306.835,92.007 308.648,89.478 309.399 C 86.634 310.244,84.104 311.811,81.792 314.160 C 80.687 315.282,77.718 318.180,75.194 320.600 C 70.638 324.969,68.292 327.820,66.980 330.585 C 65.818 333.035,63.522 334.662,60.480 335.191 C 59.018 335.446,56.950 336.071,55.885 336.581 L 53.950 337.507 52.971 336.027 C 48.970 329.982,49.066 314.969,53.135 310.335 C 53.975 309.378,54.697 307.695,55.598 304.591 C 57.045 299.605,58.121 297.920,60.639 296.696 C 62.657 295.716,62.674 295.632,61.804 291.087 C 61.243 288.154,61.084 287.852,59.074 285.887 C 57.550 284.397,56.664 283.087,55.976 281.309 C 55.197 279.297,54.780 278.736,53.806 278.386 C 48.602 276.517,47.811 275.079,47.770 267.400 C 47.744 262.505,46.684 256.400,45.860 256.400 C 45.273 256.400,36.929 258.531,35.600 259.020 C 34.610 259.385,32.403 259.931,30.696 260.233 C 26.835 260.918,25.499 261.592,23.123 264.054 C 20.843 266.417,20.884 266.415,18.913 264.277 C 15.158 260.202,15.394 253.205,19.404 249.743 C 21.541 247.898,21.693 247.595,23.053 242.465 C 23.856 239.436,26.095 235.827,28.136 234.274 C 29.607 233.154,31.617 229.730,32.170 227.400 C 32.658 225.346,34.375 222.828,36.041 221.725 L 37.638 220.669 37.568 216.034 C 37.526 213.290,37.848 208.545,38.356 204.400 C 38.828 200.550,39.402 195.600,39.630 193.400 C 40.392 186.065,41.646 182.784,44.411 180.887 C 45.286 180.286,46.097 179.353,46.224 178.800 C 47.947 171.322,50.105 166.921,52.904 165.179 C 54.957 163.900,55.343 163.184,56.365 158.754 C 57.460 154.006,58.924 151.079,61.097 149.299 C 63.152 147.615,63.421 147.048,64.402 142.336 C 65.503 137.045,66.927 134.227,69.438 132.372 C 71.618 130.762,71.695 130.612,72.979 125.577 C 73.772 122.463,76.328 118.233,77.992 117.280 C 79.299 116.532,80.951 113.783,81.406 111.600 C 82.029 108.611,84.012 105.968,86.546 104.751 C 87.470 104.307,87.865 103.655,88.581 101.400 C 90.122 96.540,92.179 92.958,94.308 91.425 C 96.469 89.869,97.287 88.620,97.963 85.846 C 98.684 82.885,99.696 81.204,102.159 78.875 C 103.391 77.709,104.400 76.686,104.400 76.601 C 104.400 74.473,110.202 65.600,111.594 65.600 C 112.193 65.600,114.347 63.098,114.861 61.803 C 116.581 57.477,119.738 56.048,124.671 57.361 " stroke="none" fill="#fcfcfc" fill-rule="evenodd"></path></g></svg>