<?xml version="1.0" encoding="utf-8"?>
<!DOCTYPE svg PUBLIC "-//W3C//DTD SVG 20010904//EN" "http://www.w3.org/TR/2001/REC-SVG-20010904/DTD/svg10.dtd">
<svg version="1.0" xmlns="http://www.w3.org/2000/svg" width="50pt" height="50pt" viewBox="0 0 50 50" style="" preserveAspectRatio="xMidYMid meet">
<g fill="#4086C2FF" stroke="#4086C2FF">
<path d="M 12.659 12.750 C 8.845 18.795 6.000 24.781 6.000 26.760 C 6.000 27.772 5.460 29.140 4.800 29.800 C 3.867 30.733 3.978 31.000 5.300 31.000 C 6.235 31.000 7.000 31.675 7.000 32.500 C 7.000 33.325 7.486 34.000 8.079 34.000 C 8.775 34.000 8.908 35.155 8.455 37.250 C 7.781 40.358 7.832 40.429 9.625 38.880 C 10.656 37.990 12.175 37.013 13.000 36.709 C 14.206 36.266 14.164 36.142 12.785 36.079 C 10.625 35.979 9.000 33.013 9.000 29.169 C 9.000 27.012 9.994 25.335 12.659 22.995 C 16.068 20.002 16.719 19.812 22.207 20.209 L 28.097 20.635 27.799 16.711 C 27.517 13.006 27.222 12.682 22.500 10.895 C 15.785 8.353 15.386 8.428 12.659 12.750 "/></g>
<g fill="#A7DBEBFF" stroke="#A7DBEBFF">
<path d="M 15.750 22.250 L 13.500 24.500 17.250 24.810 C 19.886 25.029 21.000 25.595 21.000 26.715 C 21.000 28.131 21.213 28.117 22.900 26.591 C 24.363 25.267 25.684 25.037 28.650 25.593 C 32.285 26.273 32.416 26.213 31.000 24.502 C 29.139 22.254 23.898 20.000 20.532 20.000 C 19.139 20.000 16.988 21.013 15.750 22.250 "/></g>
<g fill="#2BA9D2FF" stroke="#2BA9D2FF">
<path d="M 27.847 17.457 C 27.513 21.655 27.693 22.019 30.996 23.840 C 37.135 27.222 39.906 27.385 34.750 24.060 C 30.598 21.382 30.000 20.563 30.000 17.557 C 30.000 12.412 28.255 12.331 27.847 17.457 "/></g>
<g fill="#6DC8E4FF" stroke="#6DC8E4FF">
<path d="M 12.535 23.104 C 9.692 25.599 9.003 26.921 9.015 29.854 C 9.027 32.576 9.276 33.120 10.000 32.000 C 10.533 31.175 10.976 29.653 10.985 28.618 C 10.993 27.583 12.607 25.221 14.571 23.368 C 19.058 19.136 17.312 18.909 12.535 23.104 "/></g>
<g fill="#A7DBEBFF" stroke="#A7DBEBFF">
<path d="M 7.079 39.250 C 7.036 40.213 7.395 41.000 7.878 41.000 C 8.360 41.000 9.373 40.213 10.128 39.250 C 11.354 37.686 11.324 37.638 9.847 38.792 C 8.497 39.847 8.100 39.847 7.676 38.792 C 7.347 37.970 7.129 38.137 7.079 39.250 "/></g>
<g fill="#A7DBEBFF" stroke="#A7DBEBFF">
<path d="M 43.422 28.874 C 43.805 29.493 44.654 29.986 45.309 29.970 C 45.964 29.953 45.651 29.446 44.613 28.843 C 43.224 28.037 42.910 28.045 43.422 28.874 "/></g>
<g fill="#6DC8E4FF" stroke="#6DC8E4FF">
<path d="M 31.422 24.874 C 31.805 25.493 32.654 25.986 33.309 25.970 C 33.964 25.953 33.651 25.446 32.613 24.843 C 31.224 24.037 30.910 24.045 31.422 24.874 "/></g>
<g fill="#6DC8E4FF" stroke="#6DC8E4FF">
<path d="M 28.387 13.157 C 29.776 13.963 30.090 13.955 29.578 13.126 C 29.195 12.507 28.346 12.014 27.691 12.030 C 27.036 12.047 27.349 12.554 28.387 13.157 "/></g>
</svg>
